<?xml version="1.0" standalone="no"?>
<!DOCTYPE svg PUBLIC "-//W3C//DTD SVG 20010904//EN"
 "http://www.w3.org/TR/2001/REC-SVG-20010904/DTD/svg10.dtd">
<svg version="1.0" xmlns="http://www.w3.org/2000/svg"
 width="512.000000pt" height="512.000000pt" viewBox="0 0 512.000000 512.000000"
 preserveAspectRatio="xMidYMid meet">
<metadata>
Created by potrace 1.16, written by Peter Selinger 2001-2019
</metadata>
<g transform="translate(0.000000,512.000000) scale(0.100000,-0.100000)"
fill="#000000" stroke="none">
<path d="M2409 4510 c-276 -25 -543 -117 -761 -262 -101 -68 -277 -236 -343
-329 l-39 -57 -131 -4 c-111 -4 -143 -9 -221 -36 -150 -50 -251 -120 -343
-236 -277 -348 -228 -909 110 -1271 l61 -65 -11 -81 c-14 -104 -14 -295 0
-395 22 -162 92 -346 180 -475 63 -93 196 -227 297 -299 109 -78 292 -167 439
-214 62 -20 114 -36 116 -36 10 0 -8 71 -28 110 -13 25 -29 64 -35 86 -11 35
-18 43 -49 52 -51 16 -214 96 -269 134 -313 211 -472 507 -472 880 0 207 39
381 127 568 84 179 111 267 138 457 14 97 32 206 40 242 63 272 181 488 366
666 247 238 546 357 935 372 223 8 428 -20 624 -88 209 -71 439 -246 587 -445
142 -193 219 -408 263 -739 23 -177 61 -308 128 -442 165 -327 186 -708 57
-1015 -108 -257 -363 -485 -657 -589 -30 -10 -40 -21 -49 -48 -6 -20 -23 -56
-36 -81 -27 -48 -46 -120 -32 -120 5 0 63 18 130 40 538 177 853 536 910 1039
12 100 6 280 -11 371 l-10 52 51 56 c117 128 191 254 244 416 82 249 67 504
-42 726 -40 81 -61 109 -142 190 -152 152 -280 206 -509 217 l-122 6 -50 66
c-75 102 -236 252 -349 326 -306 201 -690 290 -1092 255z m-1410 -792 c15 -40
-2 -61 -72 -90 -37 -15 -86 -40 -111 -57 -101 -70 -186 -200 -222 -341 -23
-93 -30 -102 -67 -98 -28 3 -32 7 -35 35 -2 18 4 61 13 95 50 196 179 359 350
443 84 41 132 45 144 13z m3321 -25 c108 -52 220 -167 277 -283 44 -91 77
-207 71 -255 -2 -25 -8 -30 -34 -33 -40 -4 -47 7 -73 103 -55 199 -169 332
-344 399 -67 25 -83 60 -46 97 26 26 46 22 149 -28z m-3214 -159 c-26 -67 -59
-208 -76 -327 -49 -333 -63 -386 -140 -553 l-41 -89 -20 25 c-39 49 -88 146
-115 225 -32 95 -44 274 -25 366 35 167 164 313 311 353 76 20 114 20 106 0z
m3095 -13 c100 -38 199 -141 246 -255 12 -30 28 -94 34 -143 11 -80 10 -99
-10 -198 -12 -60 -34 -139 -50 -175 -33 -78 -92 -171 -106 -167 -15 5 -92 187
-119 280 -13 45 -34 159 -46 252 -18 142 -44 265 -86 414 -7 24 -6 24 38 18
25 -3 69 -15 99 -26z"/>
<path d="M1795 2636 c-82 -38 -132 -111 -161 -233 -30 -126 -6 -266 62 -368
46 -69 92 -98 165 -103 49 -4 65 0 103 22 87 51 144 164 153 301 12 186 -73
357 -196 393 -54 17 -69 15 -126 -12z m134 -71 c40 -20 83 -74 79 -99 -2 -17
-9 -21 -33 -19 -93 7 -155 7 -191 0 -34 -7 -42 -5 -48 9 -9 23 23 74 64 101
38 26 88 29 129 8z"/>
<path d="M3234 2650 c-75 -23 -158 -133 -183 -241 -40 -172 22 -377 136 -449
82 -52 174 -38 245 36 129 137 143 392 29 558 -53 77 -152 119 -227 96z m123
-90 c40 -24 65 -62 61 -92 -2 -18 -8 -22 -28 -20 -31 4 -164 3 -205 0 -39 -4
-45 26 -14 66 51 65 126 83 186 46z"/>
<path d="M2370 1913 c-30 -38 -22 -96 17 -134 41 -40 74 -46 106 -17 41 37 40
106 -2 149 -40 39 -91 40 -121 2z"/>
<path d="M2697 1919 c-58 -44 -56 -145 3 -169 51 -21 118 30 127 97 10 78 -68
122 -130 72z"/>
<path d="M2041 1451 c-39 -25 28 -154 122 -236 263 -232 575 -234 846 -6 93
78 162 205 129 238 -13 12 -28 12 -120 -6 -251 -48 -605 -49 -852 -1 -117 23
-107 22 -125 11z"/>
</g>
</svg>
